<?xml version="1.0" encoding="utf-8"?>
<!-- Generator: Adobe Illustrator 19.0.0, SVG Export Plug-In . SVG Version: 6.00 Build 0)  -->
<svg version="1.1" id="Layer_1" xmlns="http://www.w3.org/2000/svg"
	xmlns:xlink="http://www.w3.org/1999/xlink" x="0px" y="0px"
	viewBox="1040 0 400 400" style="enable-background:new 0 0 1400 980;" xml:space="preserve"
>
<style type="text/css">
	.st0{fill:#17b55b;}
	.st1{fill:#1D505A;}
	.st2{fill:#A9A489;}
	.st3{fill:#755e11;}
</style>
<g id="XMLID_326_">
	<path id="XMLID_11_" class="st0" d="M1206.8,156.2c-3.4,0.8-7,0-9.9-2c-4.9-3.3-9.3-9.5-11.8-17.4c-4.2-13.2,3.9-36.9,3.9-36.9
		s21.2,14.4,24.4,27.9C1217.7,146.6,1208.2,155.8,1206.8,156.2z"/>
	<path id="XMLID_5_" class="st1" d="M1249.4,276.8c0,0-21-106-51.3-138.8c0,0,32.8,113.5,20.2,142.1
		c-12.6,28.6,18.5,18.5,18.5,18.5L1249.4,276.8z"/>
	<path id="XMLID_12_" class="st0" d="M1178.2,190.1c-1,2.4-3,4.3-5.5,5.2c-4.1,1.5-9.8,1.6-15.7-0.3c-9.8-3.2-20.8-18.3-20.8-18.3
		s17.9-6.7,27.5-2.8C1177.1,179.3,1178.6,189,1178.2,190.1z"/>
	<path id="XMLID_18_" class="st0" d="M1229,159.6c1.9,1.1,4.2,1.3,6.3,0.7c3.5-1,7.3-3.9,10.3-8.1c5-7.1,4.6-22.6,4.6-22.6
		s-13.5,3.9-19.7,12C1221.6,153.1,1228.2,159.1,1229,159.6z"/>
	<path id="XMLID_9_" class="st0" d="M1278.4,188.6c2,2,4.8,3,7.6,2.9c4.7-0.1,10.4-2.5,15.5-6.8c8.5-7.2,13.2-26.7,13.2-26.7
		s-20.6,0.7-28.6,8.5C1275.1,177.4,1277.6,187.7,1278.4,188.6z"/>
	<ellipse id="XMLID_8_" class="st3" cx="1241.9" cy="291.8" rx="60.2" ry="19.4"/>
	<path id="XMLID_7_" class="st1" d="M1302.8,307.3h-121.7l10,75.9c1.1,8.5,8.3,15,16.9,15h65.5c8.6,0,15.9-6.4,16.9-15
		L1302.8,307.3z"/>
	<path id="XMLID_6_" class="st2" d="M1309.3,284.7h-134.7c-4.4,0-7.5,4.3-6.1,8.5l3.3,9.6c0.9,2.8,3.5,4.6,6.5,4.6h127.3
		c2.9,0,5.5-1.9,6.5-4.6l3.3-9.6C1316.7,289,1313.7,284.7,1309.3,284.7z"/>
	<path id="XMLID_10_" class="st1" d="M1234,243.3c0,0,37-58.3,60-67.3c0,0-50.5,75.1-51.6,86.3L1234,243.3z"/>
	<path id="XMLID_4_" class="st1" d="M1221.7,199.6c0,0-45.4-14-54.9-14c0,0,52.7,26.9,54.4,29.7
		C1222.8,218.1,1221.7,199.6,1221.7,199.6z"/>
	<path id="XMLID_17_" class="st1" d="M1215.5,172.1c0,0,17.4-21.3,19.6-23.5c2.2-2.2-15.1,35.9-15.1,39.8
		C1220,192.3,1215.5,172.1,1215.5,172.1z"/>
</g>
</svg>