<?xml version="1.0" encoding="utf-8"?>
<!-- Generator: Adobe Illustrator 19.0.0, SVG Export Plug-In . SVG Version: 6.00 Build 0)  -->
<svg version="1.1" id="Layer_1" xmlns="http://www.w3.org/2000/svg"
xmlns:xlink="http://www.w3.org/1999/xlink" x="0px" y="0px"
viewBox="-35 0 400 400" style="enable-background:new 0 0 330 400;" xml:space="preserve"
>
<style type="text/css">
	.st0{fill:#17b55b;}
	.st1{fill:#1D505A;}
	.st2{fill:#A9A489;}
	.st3{fill:#755e11;}
</style>
	<g id="XMLID_225_">
		<path id="XMLID_3_" class="st0" d="M165.5,240.3c3.1-0.5,4.6-1.8,6.2-4.5c2.3-3.8,3.2-9.4,2.5-15.4c-1.3-10.3-14.6-21.4-14.6-21.4
			s-10.2,14-8.9,24.3c1,8.4,5.4,15,10.4,16.8C161.1,240.2,163.3,240.7,165.5,240.3z"/>
		<path id="XMLID_210_" class="st1" d="M161.1,282.2l9.8-0.9c3.6-32.8-9-56.6-9-56.6C166.7,255.2,163.6,272.5,161.1,282.2z"/>
		<ellipse id="XMLID_217_" class="st3" cx="166.3" cy="291.8" rx="60.2" ry="19.4"/>
		<path id="XMLID_44_" class="st1" d="M227.2,307.3H105.5l10,75.9c1.1,8.5,8.3,15,16.9,15h65.5c8.6,0,15.9-6.4,16.9-15L227.2,307.3z
			"/>
		<path id="XMLID_84_" class="st2" d="M233.7,284.7H99c-4.4,0-7.5,4.3-6.1,8.5l3.3,9.6c0.9,2.8,3.5,4.6,6.5,4.6H230
			c2.9,0,5.5-1.9,6.5-4.6l3.3-9.6C241.2,289,238.1,284.7,233.7,284.7z"/>
	</g>
</svg>