<?xml version="1.0" encoding="utf-8"?>
<!-- Generator: Adobe Illustrator 19.0.0, SVG Export Plug-In . SVG Version: 6.00 Build 0)  -->
<svg version="1.1" id="Layer_1" xmlns="http://www.w3.org/2000/svg" xmlns:xlink="http://www.w3.org/1999/xlink" x="0px" y="0px"
	 viewBox="0 0 1400 980" style="enable-background:new 0 0 1400 980;" xml:space="preserve">
<style type="text/css">
	.st0{fill:#D3A334;}
	.st1{fill:#1D505A;}
	.st2{fill:#A9A489;}
</style>
<g id="XMLID_2_">
	<g id="XMLID_225_">
		<path id="XMLID_3_" class="st0" d="M165.5,240.3c3.1-0.5,4.6-1.8,6.2-4.5c2.3-3.8,3.2-9.4,2.5-15.4c-1.3-10.3-14.6-21.4-14.6-21.4
			s-10.2,14-8.9,24.3c1,8.4,5.4,15,10.4,16.8C161.1,240.2,163.3,240.7,165.5,240.3z"/>
		<path id="XMLID_210_" class="st1" d="M161.1,282.2l9.8-0.9c3.6-32.8-9-56.6-9-56.6C166.7,255.2,163.6,272.5,161.1,282.2z"/>
		<ellipse id="XMLID_217_" class="st0" cx="166.3" cy="291.8" rx="60.2" ry="19.4"/>
		<path id="XMLID_44_" class="st1" d="M227.2,307.3H105.5l10,75.9c1.1,8.5,8.3,15,16.9,15h65.5c8.6,0,15.9-6.4,16.9-15L227.2,307.3z
			"/>
		<path id="XMLID_84_" class="st2" d="M233.7,284.7H99c-4.4,0-7.5,4.3-6.1,8.5l3.3,9.6c0.9,2.8,3.5,4.6,6.5,4.6H230
			c2.9,0,5.5-1.9,6.5-4.6l3.3-9.6C241.2,289,238.1,284.7,233.7,284.7z"/>
	</g>
	<g id="XMLID_290_">
		<path id="XMLID_291_" class="st0" d="M500.2,226.3c-3.1,1.2-6.5,1-9.5-0.4c-4.9-2.3-10-7.5-13.4-14.4c-5.7-11.6-1.6-34.6-1.6-34.6
			s21.6,10.3,26.5,22.3C509,215.9,501.5,225.8,500.2,226.3z"/>
		<path id="XMLID_249_" class="st1" d="M524.5,279.8c0,0-10.6-55.5-34.7-70.9c0,0,22.3,49.2,15.4,71.9L524.5,279.8z"/>
		<ellipse id="XMLID_247_" class="st0" cx="514" cy="291.8" rx="60.2" ry="19.4"/>
		<path id="XMLID_246_" class="st1" d="M574.8,307.3H453.1l10,75.9c1.1,8.5,8.3,15,16.9,15h65.5c8.6,0,15.9-6.4,16.9-15L574.8,307.3
			z"/>
		<path id="XMLID_245_" class="st2" d="M581.3,284.7H446.6c-4.4,0-7.5,4.3-6.1,8.5l3.3,9.6c0.9,2.8,3.5,4.6,6.5,4.6h127.3
			c2.9,0,5.5-1.9,6.5-4.6l3.3-9.6C588.8,289,585.7,284.7,581.3,284.7z"/>
	</g>
	<g id="XMLID_305_">
		<path id="XMLID_362_" class="st0" d="M838.9,241.4c-1,2.4-3,4.3-5.5,5.2c-4.1,1.5-9.8,1.6-15.7-0.3C807.9,243.1,797,228,797,228
			s17.9-6.7,27.5-2.8C837.8,230.6,839.4,240.3,838.9,241.4z"/>
		<path id="XMLID_323_" class="st0" d="M852.5,216.6c-3.3,1.3-6.9,1.1-10.1-0.4c-5.3-2.5-10.7-8-14.3-15.4c-6.1-12.4-1.7-37-1.7-37
			s23.1,11,28.3,23.9C861.9,205.5,853.8,216,852.5,216.6z"/>
		<path id="XMLID_322_" class="st1" d="M880.8,278.8c0,0-12.1-62.9-39.3-80.4c0,0,25.3,55.8,17.4,81.5L880.8,278.8z"/>
		<path id="XMLID_321_" class="st0" d="M897.2,224.2c1.4,2.2,3.6,3.8,6.2,4.3c4.3,0.9,9.9,0.1,15.5-2.7c9.3-4.6,17.8-21.2,17.8-21.2
			s-18.7-3.9-27.6,1.3C896.7,213.4,896.7,223.3,897.2,224.2z"/>
		<ellipse id="XMLID_320_" class="st0" cx="871.2" cy="291.8" rx="60.2" ry="19.4"/>
		<path id="XMLID_319_" class="st1" d="M932.1,307.3H810.4l10,75.9c1.1,8.5,8.3,15,16.9,15h65.5c8.6,0,15.9-6.4,16.9-15L932.1,307.3
			z"/>
		<path id="XMLID_318_" class="st2" d="M938.6,284.7H803.9c-4.4,0-7.5,4.3-6.1,8.5l3.3,9.6c0.9,2.8,3.5,4.6,6.5,4.6h127.3
			c2.9,0,5.5-1.9,6.5-4.6l3.3-9.6C946.1,289,943,284.7,938.6,284.7z"/>
		<path id="XMLID_317_" class="st1" d="M867,240.6c0,0,34.1-22.9,46.2-24.5c0,0-33.2,19.2-42.8,41.8L867,240.6z"/>
		<path id="XMLID_360_" class="st1" d="M859.7,241.4c0,0-28-3.9-33.9-1.7c0,0,31.4,8.1,34.2,10.4
			C862.8,252.3,859.7,241.4,859.7,241.4z"/>
	</g>
	<g id="XMLID_326_">
		<path id="XMLID_11_" class="st0" d="M1206.8,156.2c-3.4,0.8-7,0-9.9-2c-4.9-3.3-9.3-9.5-11.8-17.4c-4.2-13.2,3.9-36.9,3.9-36.9
			s21.2,14.4,24.4,27.9C1217.7,146.6,1208.2,155.8,1206.8,156.2z"/>
		<path id="XMLID_5_" class="st1" d="M1249.4,276.8c0,0-21-106-51.3-138.8c0,0,32.8,113.5,20.2,142.1
			c-12.6,28.6,18.5,18.5,18.5,18.5L1249.4,276.8z"/>
		<path id="XMLID_12_" class="st0" d="M1178.2,190.1c-1,2.4-3,4.3-5.5,5.2c-4.1,1.5-9.8,1.6-15.7-0.3c-9.8-3.2-20.8-18.3-20.8-18.3
			s17.9-6.7,27.5-2.8C1177.1,179.3,1178.6,189,1178.2,190.1z"/>
		<path id="XMLID_18_" class="st0" d="M1229,159.6c1.9,1.1,4.2,1.3,6.3,0.7c3.5-1,7.3-3.9,10.3-8.1c5-7.1,4.6-22.6,4.6-22.6
			s-13.5,3.9-19.7,12C1221.6,153.1,1228.2,159.1,1229,159.6z"/>
		<path id="XMLID_9_" class="st0" d="M1278.4,188.6c2,2,4.8,3,7.6,2.9c4.7-0.1,10.4-2.5,15.5-6.8c8.5-7.2,13.2-26.7,13.2-26.7
			s-20.6,0.7-28.6,8.5C1275.1,177.4,1277.6,187.7,1278.4,188.6z"/>
		<ellipse id="XMLID_8_" class="st0" cx="1241.9" cy="291.8" rx="60.2" ry="19.4"/>
		<path id="XMLID_7_" class="st1" d="M1302.8,307.3h-121.7l10,75.9c1.1,8.5,8.3,15,16.9,15h65.5c8.6,0,15.9-6.4,16.9-15
			L1302.8,307.3z"/>
		<path id="XMLID_6_" class="st2" d="M1309.3,284.7h-134.7c-4.4,0-7.5,4.3-6.1,8.5l3.3,9.6c0.9,2.8,3.5,4.6,6.5,4.6h127.3
			c2.9,0,5.5-1.9,6.5-4.6l3.3-9.6C1316.7,289,1313.7,284.7,1309.3,284.7z"/>
		<path id="XMLID_10_" class="st1" d="M1234,243.3c0,0,37-58.3,60-67.3c0,0-50.5,75.1-51.6,86.3L1234,243.3z"/>
		<path id="XMLID_4_" class="st1" d="M1221.7,199.6c0,0-45.4-14-54.9-14c0,0,52.7,26.9,54.4,29.7
			C1222.8,218.1,1221.7,199.6,1221.7,199.6z"/>
		<path id="XMLID_17_" class="st1" d="M1215.5,172.1c0,0,17.4-21.3,19.6-23.5c2.2-2.2-15.1,35.9-15.1,39.8
			C1220,192.3,1215.5,172.1,1215.5,172.1z"/>
	</g>
	<g id="XMLID_327_">
		<path id="XMLID_208_" class="st0" d="M85.4,645.4c0.6,1.8,0.4,3.8-0.5,5.5c-1.5,2.8-4.6,5.6-8.7,7.4c-6.9,3-19.7,0.5-19.7,0.5
			s6.1-12.7,13.2-15.2C79.6,640,85.2,644.6,85.4,645.4z"/>
		<path id="XMLID_155_" class="st0" d="M189,587.2c-2-1.8-3.2-4.4-3.4-7.1c-0.2-4.5,1.6-10.2,5.4-15.3c6.3-8.7,24.7-14.6,24.7-14.6
			s0.8,19.8-6.1,28C199.9,589.6,189.8,587.9,189,587.2z"/>
		<path id="XMLID_212_" class="st0" d="M100.9,685.3c0.5-2.7-0.2-5.4-1.7-7.6c-2.6-3.7-7.6-7-13.7-8.7c-10.3-2.9-28.4,3.9-28.4,3.9
			s11.6,16,22.1,18.2C93.8,694,100.7,686.5,100.9,685.3z"/>
		<path id="XMLID_154_" class="st0" d="M159.2,586.2c1.7-0.8,3-2.3,3.6-4.1c1-3,0.8-7.2-0.7-11.4c-2.6-7-13.2-14.5-13.2-14.5
			s-4.8,13.2-1.7,20C151.5,585.7,158.5,586.5,159.2,586.2z"/>
		<path id="XMLID_209_" class="st0" d="M69.8,621.8c1.6-1.6,2.5-3.9,2.4-6.2c-0.1-3.8-2-8.5-5.5-12.7c-5.8-7-20.9-11.2-20.9-11.2
			s-0.1,17,6.2,23.6C60.7,624.4,69.1,622.5,69.8,621.8z"/>
		<path id="XMLID_86_" class="st0" d="M120.2,578.9c-3.8,1.4-8,1.1-11.7-0.7c-6.1-3-12.1-9.4-16.2-18c-6.8-14.4-1.3-42.7-1.3-42.7
			s26.5,13.1,32.2,28C131.2,566.3,121.8,578.3,120.2,578.9z"/>
		<path id="XMLID_113_" class="st0" d="M239.2,616.8c2.6,2.6,6.3,4,10,3.9c6.2-0.2,13.7-3.2,20.4-8.9c11.2-9.4,17.4-35.1,17.4-35.1
			s-27.1,0.9-37.6,11.1C234.8,602,238,615.7,239.2,616.8z"/>
		<path id="XMLID_140_" class="st0" d="M244.5,647.5c1.7,1.2,3.8,1.7,5.8,1.3c3.3-0.6,7.1-3,10.2-6.7c5.1-6.2,5.8-21,5.8-21
			s-14.7,2.9-19.3,9.5C240.5,639.7,243.7,647,244.5,647.5z"/>
		<path id="XMLID_57_" class="st1" d="M191.7,756.1c0,0-44.1-156.1-80.6-197.7c0,0,47.4,153.7,40.6,195.5c-6.7,41.9,30,24.1,30,24.1
			L191.7,756.1z"/>
		<ellipse id="XMLID_53_" class="st0" cx="178.2" cy="773.8" rx="60.2" ry="19.4"/>
		<path id="XMLID_52_" class="st1" d="M239.1,789.2H117.4l10,75.9c1.1,8.5,8.3,15,16.9,15h65.5c8.6,0,15.9-6.4,16.9-15L239.1,789.2z
			"/>
		<path id="XMLID_51_" class="st2" d="M245.6,766.7H110.8c-4.4,0-7.5,4.3-6.1,8.5l3.3,9.6c0.9,2.8,3.5,4.6,6.5,4.6h127.3
			c2.9,0,5.5-1.9,6.5-4.6l3.3-9.6C253,771,250,766.7,245.6,766.7z"/>
		<path id="XMLID_48_" class="st1" d="M166.8,704.3c0,0,63.9-93.3,90.8-105.1c0,0-67.3,103.4-78.2,133.7L166.8,704.3z"/>
		<path id="XMLID_156_" class="st1" d="M145.5,641c0,0,4.2,21.9,9.2,16c4.6-5.3,35.2-69,41.1-81.2C188.8,587.6,145.5,641,145.5,641z
			"/>
		<path id="XMLID_54_" class="st1" d="M136.2,633.3c-2.5,0-61.4-9-77.4-24.1c0,0,9,26.3,83,35.9L136.2,633.3z"/>
		<path id="XMLID_55_" class="st1" d="M95.3,631.7c0,0-16.8,18.5-22.4,19.6c0,0,23-6.7,30.8-15.1L95.3,631.7z"/>
		<path id="XMLID_56_" class="st1" d="M151.4,688.9c0,0-56.3-6.7-69-12.6c0,0,37.1,25.7,69.6,26.8L151.4,688.9z"/>
		<path id="XMLID_211_" class="st1" d="M174.6,607.8c0,0-17.2-24.4-19.2-32.8c0.8,5.7,4.4,27.9,12.7,41.3L174.6,607.8z"/>
		<path id="XMLID_85_" class="st1" d="M209.4,661.9c0,0,29.7-7.8,45.1-27.8c0,0-10.9,31.7-52.7,39.2L209.4,661.9z"/>
	</g>
	<g id="XMLID_341_">
		<path id="XMLID_166_" class="st0" d="M550.2,613.2c0.5,1.1,1.4,1.9,2.5,2.3c1.8,0.7,5.3,1.1,8,0.2c4.4-1.5,8.6-7.7,8.6-7.7
			s-8-2.9-12.3-1.1C550.9,609.5,550,612.8,550.2,613.2z"/>
		<path id="XMLID_275_" class="st0" d="M421.4,645.4c0.6,1.8,0.4,3.8-0.5,5.5c-1.5,2.8-4.6,5.6-8.7,7.4c-6.9,3-19.7,0.5-19.7,0.5
			s6.1-12.7,13.2-15.2C415.6,640,421.1,644.6,421.4,645.4z"/>
		<path id="XMLID_32_" class="st0" d="M621.7,670.3c1.3,1.4,3.1,2.2,5,2.3c3.2,0.1,7.1-1.3,10.7-4c6-4.5,10-16.9,10-16.9
			s-14.1-0.9-19.7,4.1C619.8,662.6,621.1,669.7,621.7,670.3z"/>
		<path id="XMLID_273_" class="st0" d="M436.9,685.3c0.5-2.7-0.2-5.4-1.7-7.6c-2.6-3.7-7.6-7-13.7-8.7c-10.3-2.9-28.4,3.9-28.4,3.9
			s11.6,16,22.1,18.2C429.8,694,436.7,686.5,436.9,685.3z"/>
		<path id="XMLID_272_" class="st0" d="M495.2,586.2c1.7-0.8,3-2.3,3.6-4.1c1-3,0.8-7.2-0.7-11.4c-2.6-7-13.2-14.5-13.2-14.5
			s-4.8,13.2-1.7,20C487.4,585.7,494.5,586.5,495.2,586.2z"/>
		<path id="XMLID_21_" class="st0" d="M516.1,654c-1.4-1.3-2.1-3.1-2.1-5c0-3.2,1.5-7.1,4.3-10.6c4.7-5.9,16-8.7,16-8.7
			s1.4,13.1-3.6,18.6C523.6,656,516.7,654.6,516.1,654z"/>
		<path id="XMLID_31_" class="st0" d="M632.2,619.8c-1.4-1.3-2.1-3.1-2.1-5c0-3.2,1.5-7.1,4.3-10.6c4.7-5.9,16-8.7,16-8.7
			s1.4,13.1-3.6,18.6C639.7,621.9,632.7,620.4,632.2,619.8z"/>
		<path id="XMLID_58_" class="st0" d="M428.6,711.1c0.1,1.9-0.5,3.7-1.8,5.2c-2.1,2.4-5.8,4.3-10.2,5.1c-7.4,1.3-17.8-4.1-17.8-4.1
			s7.6-10.8,15.1-11.6C424.3,704.6,428.5,710.3,428.6,711.1z"/>
		<path id="XMLID_25_" class="st0" d="M532.5,540.6c-2.1,0.1-4.2-0.8-5.8-2.3c-2.6-2.5-4.6-6.8-5.2-11.8c-1.1-8.4,5.6-19.9,5.6-19.9
			s11.9,9.2,12.3,17.6C540,536.1,533.4,540.6,532.5,540.6z"/>
		<path id="XMLID_19_" class="st0" d="M393.9,583.6c1.3-1.1,2.1-2.8,2.2-4.6c0.2-2.9-1-6.6-3.4-10c-4-5.7-15.3-9.8-15.3-9.8
			s-1.1,13,3.2,18.3C386.8,585.1,393.3,584.1,393.9,583.6z"/>
		<path id="XMLID_271_" class="st0" d="M405.8,621.8c1.6-1.6,2.5-3.9,2.4-6.2c-0.1-3.8-2-8.5-5.5-12.7c-5.8-7-20.9-11.2-20.9-11.2
			s-0.1,17,6.2,23.6C396.7,624.4,405.1,622.5,405.8,621.8z"/>
		<path id="XMLID_22_" class="st0" d="M473,536.4c-2.2-0.4-4.2-1.7-5.5-3.5c-2.1-3.1-4.4-7.6-4-12.9c0.6-8.9,8.2-20.9,8.2-20.9
			s10.9,13,9.6,21.8C479.7,533.1,474,536.5,473,536.4z"/>
		<path id="XMLID_24_" class="st0" d="M518,591.6c-1.5-0.7-2.7-2.1-3.2-3.7c-0.9-2.7-1.6-6.4-0.2-10.1c2.3-6.3,10.2-13.4,10.2-13.4
			s5.2,11.6,2.4,17.7C523.4,590.6,518.6,591.9,518,591.6z"/>
		<path id="XMLID_71_" class="st0" d="M404.9,552.7c-1.3,0.4-2.7,0.3-3.9-0.4c-2-1.1-4.4-2.9-5.7-5.8c-2.1-5-1.3-13.5-1.3-13.5
			s9.4,4,11.2,9.1C407.6,549.2,405.4,552.6,404.9,552.7z"/>
		<path id="XMLID_72_" class="st0" d="M454.2,671.7c-1.5,0.2-3-0.3-4.2-1.3c-2-1.6-4.2-4.1-5-7.6c-1.3-5.9,3.1-15.3,3.1-15.3
			s7.8,6.6,8.6,12.5C457.9,668.4,454.9,671.6,454.2,671.7z"/>
		<path id="XMLID_26_" class="st0" d="M520.6,548.2c-0.7,0.9-1.8,1.5-2.9,1.7c-1.9,0.2-4.5,0.2-6.9-1.3c-3.9-2.4-7.6-8.8-7.6-8.8
			s8.6-1.9,12.3,0.8C520.7,544.4,520.8,547.8,520.6,548.2z"/>
		<path id="XMLID_27_" class="st0" d="M545.2,559.6c1,0.6,2.2,0.8,3.3,0.5c1.9-0.5,4.3-1.4,6-3.6c2.9-3.6,4.1-10.9,4.1-10.9
			s-8.7,1.3-11.3,5.1C543.8,556.1,544.8,559.3,545.2,559.6z"/>
		<path id="XMLID_270_" class="st0" d="M455.3,577.2c-3.6,1.3-7.6,1-11-0.6c-5.7-2.8-11.4-8.9-15.3-17c-6.5-13.6-1.3-40.2-1.3-40.2
			s25,12.4,30.4,26.4C465.7,565.4,456.8,576.7,455.3,577.2z"/>
		<path id="XMLID_269_" class="st0" d="M575.1,616.8c2.6,2.6,6.3,4,10,3.9c6.2-0.2,13.7-3.2,20.4-8.9c11.2-9.4,17.4-35.1,17.4-35.1
			s-27.1,0.9-37.6,11.1C570.7,602,574,615.7,575.1,616.8z"/>
		<path id="XMLID_268_" class="st0" d="M580.4,647.5c1.7,1.2,3.8,1.7,5.8,1.3c3.3-0.6,7.1-3,10.2-6.7c5.1-6.2,5.8-21,5.8-21
			s-14.7,2.9-19.3,9.5C576.5,639.7,579.7,647,580.4,647.5z"/>
		<path id="XMLID_28_" class="st0" d="M565.6,574.9c1.7,1.2,3.8,1.7,5.8,1.3c3.3-0.6,7.1-3,10.2-6.7c5.1-6.2,5.8-21,5.8-21
			s-14.7,2.9-19.3,9.5C561.6,567.1,564.9,574.4,565.6,574.9z"/>
		<path id="XMLID_267_" class="st1" d="M527.7,756.1c0,0-44.1-156.1-80.6-197.7c0,0,47.4,153.7,40.6,195.5
			c-6.7,41.9,30,24.1,30,24.1L527.7,756.1z"/>
		<ellipse id="XMLID_266_" class="st0" cx="514.2" cy="773.8" rx="60.2" ry="19.4"/>
		<path id="XMLID_265_" class="st1" d="M575,789.2H453.3l10,75.9c1.1,8.5,8.3,15,16.9,15h65.5c8.6,0,15.9-6.4,16.9-15L575,789.2z"/>
		<path id="XMLID_264_" class="st2" d="M581.6,766.7H446.8c-4.4,0-7.5,4.3-6.1,8.5l3.3,9.6c0.9,2.8,3.5,4.6,6.5,4.6h127.3
			c2.9,0,5.5-1.9,6.5-4.6l3.3-9.6C589,771,585.9,766.7,581.6,766.7z"/>
		<path id="XMLID_263_" class="st1" d="M502.8,704.3c0,0,63.9-93.3,90.8-105.1c0,0-67.3,103.4-78.2,133.7L502.8,704.3z"/>
		<path id="XMLID_262_" class="st1" d="M481.5,641c0,0,4.2,21.9,9.3,16c4.6-5.3,26.2-58.5,29.6-76.8
			C513.6,602.2,481.5,641,481.5,641z"/>
		<path id="XMLID_261_" class="st1" d="M472.2,633.3c-2.5,0-61.4-9-77.4-24.1c0,0,9,26.3,83,35.9L472.2,633.3z"/>
		<path id="XMLID_260_" class="st1" d="M431.3,631.7c0,0-16.8,18.5-22.4,19.6c0,0,23-6.7,30.8-15.1L431.3,631.7z"/>
		<path id="XMLID_259_" class="st1" d="M487.4,688.9c0,0-56.3-6.7-69-12.6c0,0,37.1,25.7,69.6,26.8L487.4,688.9z"/>
		<path id="XMLID_258_" class="st1" d="M510.6,607.8c0,0-17.2-24.4-19.2-32.8c0.8,5.7,4.4,27.9,12.7,41.3L510.6,607.8z"/>
		<path id="XMLID_257_" class="st1" d="M545.3,661.9c0,0,29.7-7.8,45.1-27.8c0,0-10.9,31.7-52.7,39.2L545.3,661.9z"/>
		<path id="XMLID_256_" class="st1" d="M505.8,622.2c0,0,0.5-0.3,1.3-0.9c8-5.3,50.8-34.5,66.5-55.8c0,0-30.3,54.9-77.4,72.3"/>
		<path id="XMLID_13_" class="st1" d="M526.6,692c0,0,83.3-27.8,113.5-84.9c0,0-48.8,99.2-122,102.6L526.6,692z"/>
		<path id="XMLID_70_" class="st1" d="M455.3,691.1c0,0-22.6,18.4-45.3,24.8c8.8-2.5,41.1-8.3,56.5-20.3L455.3,691.1z"/>
		<path id="XMLID_14_" class="st1" d="M469.5,688.3c0,0-18.1-22.8-18.7-26c0,0,3.9,21.1,8.6,25.8
			C464.1,692.8,469.5,688.3,469.5,688.3z"/>
		<path id="XMLID_276_" class="st1" d="M528,613.4c0,0,27.7-0.7,34.4-4.1c0,0-20.7,14.9-38.1,10.4L528,613.4z"/>
		<path id="XMLID_277_" class="st1" d="M465.9,601.6c-1.5-0.2-45-17.4-65.1-57c0,0,17.2,48.7,65,70.5L465.9,601.6z"/>
		<path id="XMLID_278_" class="st1" d="M586,675.4c0,0,37-5,47.1-12.9c0,0-24.1,26.9-57.2,23.5C542.8,682.7,586,675.4,586,675.4z"/>
		<path id="XMLID_281_" class="st1" d="M444.9,599.2c-5.6,2.6-51.4-15.3-59.6-26.2c0,0,20.6,28,67.6,34.4L444.9,599.2z"/>
		<path id="XMLID_16_" class="st1" d="M473.5,616.4c0,0-1.9-89.7-3-98.7c0,0,13.5,73.3,10.8,108.4
			C478.7,661.2,473.5,616.4,473.5,616.4z"/>
		<path id="XMLID_20_" class="st1" d="M492.9,680.2c0,0,26.8-32.6,32.1-37.7c0,0-22.1,39.2-27.3,45.2
			C492.5,693.8,492.9,680.2,492.9,680.2z"/>
		<path id="XMLID_23_" class="st1" d="M549.7,593.2c0,0-9.7-14.5-17.9-65c0,0,3,49.7,12,69.9L549.7,593.2z"/>
		<path id="XMLID_50_" class="st1" d="M536.5,555.3c-8-3.5-19-8.5-23.2-11.8c3,2.6,11,8.7,23.2,14.3V555.3z"/>
		<path id="XMLID_59_" class="st1" d="M549.1,554.8c-2.1,4.4-7.7,10.5-10.1,13.1h1v1.3C542.6,565.9,547.5,559.9,549.1,554.8z"/>
	</g>
	<g id="XMLID_385_">
		<path id="XMLID_133_" class="st0" d="M985.1,628.7c-2-1.7-3.2-4.2-3.3-6.9c-0.2-4.4,1.5-10,5.1-15.1c6-8.6,23.1-14.8,23.1-14.8
			s1.7,19.6-4.9,27.6C995.8,630.9,985.9,629.4,985.1,628.7z"/>
		<g id="XMLID_355_">
			<path id="XMLID_118_" class="st0" d="M783.5,642.3c0.8,2.4,0.5,4.9-0.6,7.1c-1.9,3.7-6,7.3-11.3,9.6c-9,3.9-25.7,0.6-25.7,0.6
				s8-16.6,17.2-19.8C776,635.3,783.2,641.3,783.5,642.3z"/>
			<path id="XMLID_115_" class="st0" d="M871.9,656.7c-1.8-1.7-2.7-4.1-2.7-6.6c0-4.1,2-9.2,5.6-13.8c6.1-7.7,21-11.3,21-11.3
				s1.9,17.2-4.8,24.4C881.8,659.4,872.7,657.4,871.9,656.7z"/>
			<path id="XMLID_114_" class="st0" d="M794.2,708.7c0.2,2.9-0.8,5.7-2.7,7.8c-3.2,3.6-8.8,6.5-15.5,7.7c-11.2,2-27-6.3-27-6.3
				s11.6-16.4,23-17.6C787.6,698.8,794.1,707.5,794.2,708.7z"/>
			<path id="XMLID_111_" class="st0" d="M754.4,586.6c1.8-1.5,2.9-3.8,3-6.2c0.2-4-1.4-9-4.6-13.5c-5.4-7.7-20.7-13.3-20.7-13.3
				s-1.6,17.6,4.4,24.8C744.8,588.6,753.6,587.2,754.4,586.6z"/>
			<path id="XMLID_109_" class="st0" d="M831.6,541c-3-0.5-5.6-2.2-7.3-4.7c-2.9-4.2-5.8-10.1-5.4-17.2c0.8-11.9,11-28,11-28
				s14.6,17.3,12.9,29.2C840.5,536.7,832.9,541.2,831.6,541z"/>
			<path id="XMLID_108_" class="st0" d="M876.2,591.5c-1.7-0.8-2.9-2.2-3.5-4c-1-2.9-1.7-6.9-0.3-11c2.5-6.9,11.2-14.6,11.2-14.6
				s5.6,12.6,2.7,19.3C882.2,590.4,876.9,591.8,876.2,591.5z"/>
			<path id="XMLID_107_" class="st0" d="M765.5,556.2c-2,0.6-4.1,0.4-5.9-0.6c-3-1.6-6.7-4.3-8.6-8.8c-3.2-7.5-2-20.4-2-20.4
				s14.2,6,16.9,13.7C769.6,550.8,766.4,555.9,765.5,556.2z"/>
			<path id="XMLID_106_" class="st0" d="M813.2,673.3c-1.8,0.2-3.7-0.4-5.1-1.6c-2.4-2-5.2-5-6.1-9.3c-1.6-7.2,3.8-18.7,3.8-18.7
				s9.5,8,10.5,15.3C817.7,669.3,814,673.2,813.2,673.3z"/>
			<path id="XMLID_105_" class="st0" d="M882.7,548.4c-1,1.3-2.5,2.1-4.2,2.3c-2.7,0.3-6.4,0.3-9.8-1.8
				c-5.6-3.4-10.8-12.5-10.8-12.5s12.2-2.6,17.5,1.2C882.9,543,883.1,547.9,882.7,548.4z"/>
			<path id="XMLID_104_" class="st0" d="M900.5,561.6c1.5,0.9,3.3,1.2,5,0.8c2.9-0.7,6.5-2.1,9.1-5.4c4.3-5.5,6.1-16.4,6.1-16.4
				s-13.1,1.9-17,7.7C898.3,556.3,899.9,561.2,900.5,561.6z"/>
			<path id="XMLID_132_" class="st0" d="M899.6,614c0.8,1.8,2.3,3.2,4.2,3.8c3.1,1.1,9,1.8,13.4,0.3c7.4-2.4,14.4-12.9,14.4-12.9
				s-13.5-4.8-20.7-1.8C900.8,607.7,899.2,613.3,899.6,614z"/>
			<path id="XMLID_101_" class="st0" d="M939.4,646.5c1.7,1.2,3.9,1.7,5.9,1.3c3.4-0.6,7.2-3,10.2-6.7c5.1-6.2,5.8-21.1,5.8-21.1
				s-14.8,2.9-19.4,9.5C935.4,638.7,938.6,646,939.4,646.5z"/>
			<path id="XMLID_99_" class="st1" d="M886.3,755.6c0,0-44.3-156.8-81.2-198.6c0,0,47.7,154.3,40.9,196.4
				c-6.8,42.1,30.2,24.2,30.2,24.2L886.3,755.6z"/>
			<ellipse id="XMLID_98_" class="st0" cx="866" cy="773.3" rx="60.6" ry="19.5"/>
			<path id="XMLID_97_" class="st1" d="M927.2,788.8H804.7l10,76.2c1.1,8.6,8.4,15,17,15h65.9c8.7,0,16-6.4,17-15L927.2,788.8z"/>
			<path id="XMLID_96_" class="st2" d="M933.8,766.2H798.2c-4.4,0-7.5,4.3-6.1,8.5l3.3,9.7c1,2.8,3.6,4.6,6.5,4.6H930
				c2.9,0,5.6-1.9,6.5-4.6l3.3-9.7C941.3,770.5,938.2,766.2,933.8,766.2z"/>
			<path id="XMLID_95_" class="st1" d="M861.2,703.5c0,0,64.3-93.8,91.4-105.6c0,0-67.7,103.9-78.7,134.3L861.2,703.5z"/>
			<path id="XMLID_94_" class="st1" d="M839.8,639.9c0,0,4.2,22,9.3,16c4.6-5.3,26.4-58.8,29.8-77.2
				C872.1,600.9,839.8,639.9,839.8,639.9z"/>
			<path id="XMLID_93_" class="st1" d="M830.4,632.3c-2.5,0-61.8-9-77.9-24.2c0,0,9,26.5,83.5,36L830.4,632.3z"/>
			<path id="XMLID_92_" class="st1" d="M789.2,630.6c0,0-16.9,18.6-22.6,19.7c0,0,23.1-6.8,31-15.2L789.2,630.6z"/>
			<path id="XMLID_91_" class="st1" d="M845.7,688c0,0-56.7-6.8-69.4-12.7c0,0,37.3,25.8,70.1,26.9L845.7,688z"/>
			<path id="XMLID_90_" class="st1" d="M869.1,606.6c0,0-17.3-24.5-19.3-33c0.8,5.7,4.5,28,12.8,41.4L869.1,606.6z"/>
			<path id="XMLID_89_" class="st1" d="M904,661c0,0,29.9-7.9,45.4-27.9c0,0-11,31.8-53,39.4L904,661z"/>
			<path id="XMLID_88_" class="st1" d="M864.2,621c0,0,0.5-0.3,1.3-0.9c8-5.4,51.1-34.6,67-56c0,0-30.5,55.2-77.9,72.6"/>
			<path id="XMLID_87_" class="st1" d="M885.2,691.2c0,0,83.8-27.9,114.2-85.3c0,0-49.1,99.6-122.8,103L885.2,691.2z"/>
			<path id="XMLID_83_" class="st1" d="M813.4,690.3c0,0-22.8,18.4-45.6,24.9c8.8-2.5,41.4-8.4,56.9-20.4L813.4,690.3z"/>
			<path id="XMLID_82_" class="st1" d="M827.7,687.5c0,0-18.2-22.9-18.8-26.1c0,0,3.9,21.2,8.7,25.9S827.7,687.5,827.7,687.5z"/>
			<path id="XMLID_81_" class="st1" d="M880.7,611.2c0,0,27.8,0.8,34.8-2.2c0,0-21.7,13.8-38.9,8.3L880.7,611.2z"/>
			<path id="XMLID_80_" class="st1" d="M824.1,600.3c-1.5-0.2-45.3-17.4-65.6-57.3c0,0,17.3,48.9,65.5,70.9L824.1,600.3z"/>
			<path id="XMLID_79_" class="st1" d="M947.6,673.3c0,0,29.8-2,38.3-7.6c0,0-20.7,20.1-46.9,15.6
				C912.7,676.7,947.6,673.3,947.6,673.3z"/>
			<path id="XMLID_78_" class="st1" d="M802.9,597.9c-5.6,2.6-51.7-15.4-60-26.3c0,0,20.7,28.2,68.1,34.5L802.9,597.9z"/>
			<path id="XMLID_77_" class="st1" d="M831.7,615.2c0,0-1.9-90.1-3-99.1c0,0,13.5,73.6,10.9,108.9S831.7,615.2,831.7,615.2z"/>
			<path id="XMLID_76_" class="st1" d="M851.2,679.3c0,0,27-32.8,32.4-37.9c0,0-22.3,39.4-27.5,45.4
				C850.9,693,851.2,679.3,851.2,679.3z"/>
			<path id="XMLID_75_" class="st1" d="M908.4,591.9c0,0-9.8-14.5-18.1-65.3c0,0,3,49.9,12,70.2L908.4,591.9z"/>
			<path id="XMLID_74_" class="st1" d="M895.2,553.9c-8.1-3.5-19.1-8.6-23.3-11.9c3.1,2.6,11.1,8.8,23.3,14.4V553.9z"/>
			<path id="XMLID_73_" class="st1" d="M907.8,553.3c-2.1,4.4-7.8,10.6-10.2,13.2h1v1.3C901.3,564.5,906.3,558.5,907.8,553.3z"/>
		</g>
	</g>
	<g id="XMLID_356_">
		<path id="XMLID_213_" class="st1" d="M1241.1,755.6c0,0-44.3-156.8-81.2-198.6c0,0,47.7,154.3,40.9,196.4s30.2,24.2,30.2,24.2
			L1241.1,755.6z"/>
		<ellipse id="XMLID_207_" class="st0" cx="1220.8" cy="773.3" rx="60.6" ry="19.5"/>
		<path id="XMLID_206_" class="st1" d="M1282,788.8h-122.5l10,76.2c1.1,8.6,8.4,15,17,15h65.9c8.7,0,16-6.4,17-15L1282,788.8z"/>
		<path id="XMLID_205_" class="st2" d="M1288.6,766.2H1153c-4.4,0-7.5,4.3-6.1,8.5l3.3,9.7c1,2.8,3.6,4.6,6.5,4.6h128.1
			c2.9,0,5.6-1.9,6.5-4.6l3.3-9.7C1296.1,770.5,1293,766.2,1288.6,766.2z"/>
		<path id="XMLID_204_" class="st1" d="M1216.1,703.5c0,0,64.3-93.8,91.4-105.6c0,0-67.7,103.9-78.7,134.3L1216.1,703.5z"/>
		<path id="XMLID_203_" class="st1" d="M1194.6,639.9c0,0,4.2,22,9.3,16c4.6-5.3,26.4-58.8,29.8-77.2
			C1226.9,600.9,1194.6,639.9,1194.6,639.9z"/>
		<path id="XMLID_202_" class="st1" d="M1185.2,632.3c-2.5,0-61.8-9-77.9-24.2c0,0,9,26.5,83.5,36L1185.2,632.3z"/>
		<path id="XMLID_201_" class="st1" d="M1144,630.6c0,0-16.9,18.6-22.6,19.7c0,0,23.1-6.8,31-15.2L1144,630.6z"/>
		<path id="XMLID_200_" class="st1" d="M1200.5,688c0,0-56.7-6.8-69.4-12.7c0,0,37.3,25.8,70.1,26.9L1200.5,688z"/>
		<path id="XMLID_199_" class="st1" d="M1223.9,606.6c0,0-17.3-24.5-19.3-33c0.8,5.7,4.5,28,12.8,41.4L1223.9,606.6z"/>
		<path id="XMLID_198_" class="st1" d="M1258.9,661c0,0,29.9-7.9,45.4-27.9c0,0-11,31.8-53,39.4L1258.9,661z"/>
		<path id="XMLID_197_" class="st1" d="M1219,621c0,0,0.5-0.3,1.3-0.9c8-5.4,51.1-34.6,67-56c0,0-30.5,55.2-77.9,72.6"/>
		<path id="XMLID_196_" class="st1" d="M1240,691.2c0,0,83.8-27.9,114.2-85.3c0,0-49.1,99.6-122.8,103L1240,691.2z"/>
		<path id="XMLID_195_" class="st1" d="M1168.3,690.3c0,0-22.8,18.4-45.6,24.9c8.8-2.5,41.4-8.4,56.9-20.4L1168.3,690.3z"/>
		<path id="XMLID_194_" class="st1" d="M1182.6,687.5c0,0-18.2-22.9-18.8-26.1c0,0,3.9,21.2,8.7,25.9
			C1177.1,692,1182.6,687.5,1182.6,687.5z"/>
		<path id="XMLID_193_" class="st1" d="M1235.5,611.2c0,0,27.8,0.8,34.8-2.2c0,0-21.7,13.8-38.9,8.3L1235.5,611.2z"/>
		<path id="XMLID_192_" class="st1" d="M1178.9,600.3c-1.5-0.2-45.3-17.4-65.6-57.3c0,0,17.3,48.9,65.5,70.9L1178.9,600.3z"/>
		<path id="XMLID_134_" class="st1" d="M1302.4,673.3c0,0,29.8-2,38.3-7.6c0,0-20.7,20.1-46.9,15.6
			C1267.6,676.7,1302.4,673.3,1302.4,673.3z"/>
		<path id="XMLID_117_" class="st1" d="M1157.7,597.9c-5.6,2.6-51.7-15.4-60-26.3c0,0,20.7,28.2,68.1,34.5L1157.7,597.9z"/>
		<path id="XMLID_116_" class="st1" d="M1186.5,615.2c0,0-1.9-90.1-3-99.1c0,0,13.5,73.6,10.9,108.9S1186.5,615.2,1186.5,615.2z"/>
		<path id="XMLID_112_" class="st1" d="M1206.1,679.3c0,0,27-32.8,32.4-37.9c0,0-22.3,39.4-27.5,45.4S1206.1,679.3,1206.1,679.3z"/>
		<path id="XMLID_110_" class="st1" d="M1263.2,591.9c0,0-9.8-14.5-18.1-65.3c0,0,3,49.9,12,70.2L1263.2,591.9z"/>
		<path id="XMLID_103_" class="st1" d="M1250,553.9c-8.1-3.5-19.1-8.6-23.3-11.9c3.1,2.6,11.1,8.8,23.3,14.4V553.9z"/>
		<path id="XMLID_102_" class="st1" d="M1262.6,553.3c-2.1,4.4-7.8,10.6-10.2,13.2h1v1.3C1256.1,564.5,1261.1,558.5,1262.6,553.3z"
			/>
	</g>
</g>
</svg>
