<?xml version="1.0" encoding="utf-8"?>
<!-- Generator: Adobe Illustrator 19.0.0, SVG Export Plug-In . SVG Version: 6.00 Build 0)  -->
<svg version="1.1" id="Layer_1" xmlns="http://www.w3.org/2000/svg"
	xmlns:xlink="http://www.w3.org/1999/xlink" x="0px" y="0px"
	viewBox="312 482 400 400" style="enable-background:new 0 0 1400 980;" xml:space="preserve">
<style type="text/css">
	.st0{fill:#17b55b;}
	.st1{fill:#1D505A;}
	.st2{fill:#A9A489;}
	.st3{fill:#755e11;}
</style>
<g id="XMLID_2_">
	<g id="XMLID_341_">
		<path id="XMLID_166_" class="st0" d="M550.2,613.2c0.5,1.1,1.4,1.9,2.5,2.3c1.8,0.7,5.3,1.1,8,0.2c4.4-1.5,8.6-7.7,8.6-7.7
			s-8-2.9-12.3-1.1C550.9,609.5,550,612.8,550.2,613.2z"/>
		<path id="XMLID_275_" class="st0" d="M421.4,645.4c0.6,1.8,0.4,3.8-0.5,5.5c-1.5,2.8-4.6,5.6-8.7,7.4c-6.9,3-19.7,0.5-19.7,0.5
			s6.1-12.7,13.2-15.2C415.6,640,421.1,644.6,421.4,645.4z"/>
		<path id="XMLID_32_" class="st0" d="M621.7,670.3c1.3,1.4,3.1,2.2,5,2.3c3.2,0.1,7.1-1.3,10.7-4c6-4.5,10-16.9,10-16.9
			s-14.1-0.9-19.7,4.1C619.8,662.6,621.1,669.7,621.7,670.3z"/>
		<path id="XMLID_273_" class="st0" d="M436.9,685.3c0.5-2.7-0.2-5.4-1.7-7.6c-2.6-3.7-7.6-7-13.7-8.7c-10.3-2.9-28.4,3.9-28.4,3.9
			s11.6,16,22.1,18.2C429.8,694,436.7,686.5,436.9,685.3z"/>
		<path id="XMLID_272_" class="st0" d="M495.2,586.2c1.7-0.8,3-2.3,3.6-4.1c1-3,0.8-7.2-0.7-11.4c-2.6-7-13.2-14.5-13.2-14.5
			s-4.8,13.2-1.7,20C487.4,585.7,494.5,586.5,495.2,586.2z"/>
		<path id="XMLID_21_" class="st0" d="M516.1,654c-1.4-1.3-2.1-3.1-2.1-5c0-3.2,1.5-7.1,4.3-10.6c4.7-5.9,16-8.7,16-8.7
			s1.4,13.1-3.6,18.6C523.6,656,516.7,654.6,516.1,654z"/>
		<path id="XMLID_31_" class="st0" d="M632.2,619.8c-1.4-1.3-2.1-3.1-2.1-5c0-3.2,1.5-7.1,4.3-10.6c4.7-5.9,16-8.7,16-8.7
			s1.4,13.1-3.6,18.6C639.7,621.9,632.7,620.4,632.2,619.8z"/>
		<path id="XMLID_58_" class="st0" d="M428.6,711.1c0.1,1.9-0.5,3.7-1.8,5.2c-2.1,2.4-5.8,4.3-10.2,5.1c-7.4,1.3-17.8-4.1-17.8-4.1
			s7.6-10.8,15.1-11.6C424.3,704.6,428.5,710.3,428.6,711.1z"/>
		<path id="XMLID_25_" class="st0" d="M532.5,540.6c-2.1,0.1-4.2-0.8-5.8-2.3c-2.6-2.5-4.6-6.8-5.2-11.8c-1.1-8.4,5.6-19.9,5.6-19.9
			s11.9,9.2,12.3,17.6C540,536.1,533.4,540.6,532.5,540.6z"/>
		<path id="XMLID_19_" class="st0" d="M393.9,583.6c1.3-1.1,2.1-2.8,2.2-4.6c0.2-2.9-1-6.6-3.4-10c-4-5.7-15.3-9.8-15.3-9.8
			s-1.1,13,3.2,18.3C386.8,585.1,393.3,584.1,393.9,583.6z"/>
		<path id="XMLID_271_" class="st0" d="M405.8,621.8c1.6-1.6,2.5-3.9,2.4-6.2c-0.1-3.8-2-8.5-5.5-12.7c-5.8-7-20.9-11.2-20.9-11.2
			s-0.1,17,6.2,23.6C396.7,624.4,405.1,622.5,405.8,621.8z"/>
		<path id="XMLID_22_" class="st0" d="M473,536.4c-2.2-0.4-4.2-1.7-5.5-3.5c-2.1-3.1-4.4-7.6-4-12.9c0.6-8.9,8.2-20.9,8.2-20.9
			s10.9,13,9.6,21.8C479.7,533.1,474,536.5,473,536.4z"/>
		<path id="XMLID_24_" class="st0" d="M518,591.6c-1.5-0.7-2.7-2.1-3.2-3.7c-0.9-2.7-1.6-6.4-0.2-10.1c2.3-6.3,10.2-13.4,10.2-13.4
			s5.2,11.6,2.4,17.7C523.4,590.6,518.6,591.9,518,591.6z"/>
		<path id="XMLID_71_" class="st0" d="M404.9,552.7c-1.3,0.4-2.7,0.3-3.9-0.4c-2-1.1-4.4-2.9-5.7-5.8c-2.1-5-1.3-13.5-1.3-13.5
			s9.4,4,11.2,9.1C407.6,549.2,405.4,552.6,404.9,552.7z"/>
		<path id="XMLID_72_" class="st0" d="M454.2,671.7c-1.5,0.2-3-0.3-4.2-1.3c-2-1.6-4.2-4.1-5-7.6c-1.3-5.9,3.1-15.3,3.1-15.3
			s7.8,6.6,8.6,12.5C457.9,668.4,454.9,671.6,454.2,671.7z"/>
		<path id="XMLID_26_" class="st0" d="M520.6,548.2c-0.7,0.9-1.8,1.5-2.9,1.7c-1.9,0.2-4.5,0.2-6.9-1.3c-3.9-2.4-7.6-8.8-7.6-8.8
			s8.6-1.9,12.3,0.8C520.7,544.4,520.8,547.8,520.6,548.2z"/>
		<path id="XMLID_27_" class="st0" d="M545.2,559.6c1,0.6,2.2,0.8,3.3,0.5c1.9-0.5,4.3-1.4,6-3.6c2.9-3.6,4.1-10.9,4.1-10.9
			s-8.7,1.3-11.3,5.1C543.8,556.1,544.8,559.3,545.2,559.6z"/>
		<path id="XMLID_270_" class="st0" d="M455.3,577.2c-3.6,1.3-7.6,1-11-0.6c-5.7-2.8-11.4-8.9-15.3-17c-6.5-13.6-1.3-40.2-1.3-40.2
			s25,12.4,30.4,26.4C465.7,565.4,456.8,576.7,455.3,577.2z"/>
		<path id="XMLID_269_" class="st0" d="M575.1,616.8c2.6,2.6,6.3,4,10,3.9c6.2-0.2,13.7-3.2,20.4-8.9c11.2-9.4,17.4-35.1,17.4-35.1
			s-27.1,0.9-37.6,11.1C570.7,602,574,615.7,575.1,616.8z"/>
		<path id="XMLID_268_" class="st0" d="M580.4,647.5c1.7,1.2,3.8,1.7,5.8,1.3c3.3-0.6,7.1-3,10.2-6.7c5.1-6.2,5.8-21,5.8-21
			s-14.7,2.9-19.3,9.5C576.5,639.7,579.7,647,580.4,647.5z"/>
		<path id="XMLID_28_" class="st0" d="M565.6,574.9c1.7,1.2,3.8,1.7,5.8,1.3c3.3-0.6,7.1-3,10.2-6.7c5.1-6.2,5.8-21,5.8-21
			s-14.7,2.9-19.3,9.5C561.6,567.1,564.9,574.4,565.6,574.9z"/>
		<path id="XMLID_267_" class="st1" d="M527.7,756.1c0,0-44.1-156.1-80.6-197.7c0,0,47.4,153.7,40.6,195.5
			c-6.7,41.9,30,24.1,30,24.1L527.7,756.1z"/>
		<ellipse id="XMLID_266_" class="st3" cx="514.2" cy="773.8" rx="60.2" ry="19.4"/>
		<path id="XMLID_265_" class="st1" d="M575,789.2H453.3l10,75.9c1.1,8.5,8.3,15,16.9,15h65.5c8.6,0,15.9-6.4,16.9-15L575,789.2z"/>
		<path id="XMLID_264_" class="st2" d="M581.6,766.7H446.8c-4.4,0-7.5,4.3-6.1,8.5l3.3,9.6c0.9,2.8,3.5,4.6,6.5,4.6h127.3
			c2.9,0,5.5-1.9,6.5-4.6l3.3-9.6C589,771,585.9,766.7,581.6,766.7z"/>
		<path id="XMLID_263_" class="st1" d="M502.8,704.3c0,0,63.9-93.3,90.8-105.1c0,0-67.3,103.4-78.2,133.7L502.8,704.3z"/>
		<path id="XMLID_262_" class="st1" d="M481.5,641c0,0,4.2,21.9,9.3,16c4.6-5.3,26.2-58.5,29.6-76.8
			C513.6,602.2,481.5,641,481.5,641z"/>
		<path id="XMLID_261_" class="st1" d="M472.2,633.3c-2.5,0-61.4-9-77.4-24.1c0,0,9,26.3,83,35.9L472.2,633.3z"/>
		<path id="XMLID_260_" class="st1" d="M431.3,631.7c0,0-16.8,18.5-22.4,19.6c0,0,23-6.7,30.8-15.1L431.3,631.7z"/>
		<path id="XMLID_259_" class="st1" d="M487.4,688.9c0,0-56.3-6.7-69-12.6c0,0,37.1,25.7,69.6,26.8L487.4,688.9z"/>
		<path id="XMLID_258_" class="st1" d="M510.6,607.8c0,0-17.2-24.4-19.2-32.8c0.8,5.7,4.4,27.9,12.7,41.3L510.6,607.8z"/>
		<path id="XMLID_257_" class="st1" d="M545.3,661.9c0,0,29.7-7.8,45.1-27.8c0,0-10.9,31.7-52.7,39.2L545.3,661.9z"/>
		<path id="XMLID_256_" class="st1" d="M505.8,622.2c0,0,0.5-0.3,1.3-0.9c8-5.3,50.8-34.5,66.5-55.8c0,0-30.3,54.9-77.4,72.3"/>
		<path id="XMLID_13_" class="st1" d="M526.6,692c0,0,83.3-27.8,113.5-84.9c0,0-48.8,99.2-122,102.6L526.6,692z"/>
		<path id="XMLID_70_" class="st1" d="M455.3,691.1c0,0-22.6,18.4-45.3,24.8c8.8-2.5,41.1-8.3,56.5-20.3L455.3,691.1z"/>
		<path id="XMLID_14_" class="st1" d="M469.5,688.3c0,0-18.1-22.8-18.7-26c0,0,3.9,21.1,8.6,25.8
			C464.1,692.8,469.5,688.3,469.5,688.3z"/>
		<path id="XMLID_276_" class="st1" d="M528,613.4c0,0,27.7-0.7,34.4-4.1c0,0-20.7,14.9-38.1,10.4L528,613.4z"/>
		<path id="XMLID_277_" class="st1" d="M465.9,601.6c-1.5-0.2-45-17.4-65.1-57c0,0,17.2,48.7,65,70.5L465.9,601.6z"/>
		<path id="XMLID_278_" class="st1" d="M586,675.4c0,0,37-5,47.1-12.9c0,0-24.1,26.9-57.2,23.5C542.8,682.7,586,675.4,586,675.4z"/>
		<path id="XMLID_281_" class="st1" d="M444.9,599.2c-5.6,2.6-51.4-15.3-59.6-26.2c0,0,20.6,28,67.6,34.4L444.9,599.2z"/>
		<path id="XMLID_16_" class="st1" d="M473.5,616.4c0,0-1.9-89.7-3-98.7c0,0,13.5,73.3,10.8,108.4
			C478.7,661.2,473.5,616.4,473.5,616.4z"/>
		<path id="XMLID_20_" class="st1" d="M492.9,680.2c0,0,26.8-32.6,32.1-37.7c0,0-22.1,39.2-27.3,45.2
			C492.5,693.8,492.9,680.2,492.9,680.2z"/>
		<path id="XMLID_23_" class="st1" d="M549.7,593.2c0,0-9.7-14.5-17.9-65c0,0,3,49.7,12,69.9L549.7,593.2z"/>
		<path id="XMLID_50_" class="st1" d="M536.5,555.3c-8-3.5-19-8.5-23.2-11.8c3,2.6,11,8.7,23.2,14.3V555.3z"/>
		<path id="XMLID_59_" class="st1" d="M549.1,554.8c-2.1,4.4-7.7,10.5-10.1,13.1h1v1.3C542.6,565.9,547.5,559.9,549.1,554.8z"/>
	</g>
</g>
</svg>