<?xml version="1.0" encoding="utf-8"?>
<svg version="1.1" id="Layer_1" xmlns="http://www.w3.org/2000/svg"
	xmlns:xlink="http://www.w3.org/1999/xlink" x="0px" y="0px"
	viewBox="0 0 348.369 277.174" style="enable-background:new 0 0 348.369 277.174;"
	xml:space="preserve">
<g>
	
		<linearGradient id="SVGID_00000152943200123297465380000008260721842421076118_" gradientUnits="userSpaceOnUse" x1="247.1364" y1="218.2269" x2="247.682" y2="231.5035">
		<stop  offset="0.0283" style="stop-color:#5D91C9"/>
		<stop  offset="0.1076" style="stop-color:#4E85C1"/>
		<stop  offset="0.2083" style="stop-color:#417BBA"/>
		<stop  offset="0.3052" style="stop-color:#3D78B8"/>
		<stop  offset="0.9833" style="stop-color:#386DA7"/>
		<stop  offset="1" style="stop-color:#386DA7"/>
	</linearGradient>
	<path style="fill:url(#SVGID_00000152943200123297465380000008260721842421076118_);" d="M240.4,216.817
		c0,0,16.366,3.138,30.963,1.637l4.226,5.458l-4.775,2.73c0,0-43.509,11.729-51.148,9.819L240.4,216.817z"/>
	
		<linearGradient id="SVGID_00000034811799106444344350000018181853698725851523_" gradientUnits="userSpaceOnUse" x1="246.4682" y1="218.9247" x2="247.7418" y2="231.2928">
		<stop  offset="0.0283" style="stop-color:#5D91C9"/>
		<stop  offset="0.1414" style="stop-color:#4E85C1"/>
		<stop  offset="0.2849" style="stop-color:#417BBA"/>
		<stop  offset="0.4231" style="stop-color:#3D78B8"/>
		<stop  offset="0.7568" style="stop-color:#3B73B0"/>
		<stop  offset="1" style="stop-color:#386DA7"/>
	</linearGradient>
	<path style="opacity:0.5;fill:url(#SVGID_00000034811799106444344350000018181853698725851523_);" d="M267.191,222.352
		c-6.404,2.738-13.383,3.953-20.318,4.309c-5.271,0.271-10.696,0.276-15.852-0.96l-11.355,10.761
		c7.64,1.91,51.148-9.819,51.148-9.819l4.775-2.73l-3.252-4.198C270.674,220.756,268.901,221.619,267.191,222.352z"/>
	
		<radialGradient id="SVGID_00000108995975433508720420000016619573158501322141_" cx="277.4524" cy="213.7737" r="18.5555" gradientUnits="userSpaceOnUse">
		<stop  offset="0.0283" style="stop-color:#5D91C9"/>
		<stop  offset="0.1726" style="stop-color:#4E85C1"/>
		<stop  offset="0.3557" style="stop-color:#417BBA"/>
		<stop  offset="0.532" style="stop-color:#3D78B8"/>
		<stop  offset="0.8319" style="stop-color:#3A72AF"/>
		<stop  offset="1" style="stop-color:#386DA7"/>
	</radialGradient>
	<path style="fill:url(#SVGID_00000108995975433508720420000016619573158501322141_);" d="M271.363,218.454
		c0,0,0.543,5.39-0.549,8.188c0,0,12.345,8.454,13.709,8.522c1.364,0.068,3.698-22.139,2.728-26.12
		C286.57,206.246,271.363,218.454,271.363,218.454z"/>
	
		<linearGradient id="SVGID_00000160166865089435238320000009635879983058474652_" gradientUnits="userSpaceOnUse" x1="279.9303" y1="211.9897" x2="278.2935" y2="231.0857">
		<stop  offset="0.0283" style="stop-color:#5D91C9"/>
		<stop  offset="0.1414" style="stop-color:#4E85C1"/>
		<stop  offset="0.2849" style="stop-color:#417BBA"/>
		<stop  offset="0.4231" style="stop-color:#3D78B8"/>
		<stop  offset="0.7568" style="stop-color:#3B73B0"/>
		<stop  offset="1" style="stop-color:#386DA7"/>
	</linearGradient>
	<path style="opacity:0.5;fill:url(#SVGID_00000160166865089435238320000009635879983058474652_);" d="M285.383,221.813
		c-1.645,2.218-4.12,4.679-7.163,4.303c-1.619-0.202-3.427-0.875-4.54-2.131c-1.019-1.146-1.603-2.502-2.213-3.857
		c0.075,1.814,0.056,4.703-0.652,6.514c0,0,12.345,8.454,13.709,8.522c0.855,0.044,2.092-8.68,2.659-16.171
		C286.627,219.974,286.043,220.924,285.383,221.813z"/>
	
		<radialGradient id="SVGID_00000039124927669446351510000006091071561405660598_" cx="284.7629" cy="210.3577" r="9.9484" gradientUnits="userSpaceOnUse">
		<stop  offset="0.0283" style="stop-color:#5D91C9"/>
		<stop  offset="0.1726" style="stop-color:#4E85C1"/>
		<stop  offset="0.3557" style="stop-color:#417BBA"/>
		<stop  offset="0.532" style="stop-color:#3D78B8"/>
		<stop  offset="0.8319" style="stop-color:#3A72AF"/>
		<stop  offset="1" style="stop-color:#386DA7"/>
	</radialGradient>
	<path style="fill:url(#SVGID_00000039124927669446351510000006091071561405660598_);" d="M287.252,209.044
		c-0.179-0.733-1.359-0.431-2.999,0.407c0.33,2.114,0.365,4.246,0.475,6.415c0.185,3.579,0.301,7.168,0.224,10.757
		c-0.064,2.813-0.104,5.664-0.318,8.491C286.006,234.082,288.196,212.918,287.252,209.044z"/>
	
		<linearGradient id="SVGID_00000103968059513091117930000010755810788831893942_" gradientUnits="userSpaceOnUse" x1="168.1898" y1="143.4724" x2="188.377" y2="166.9332">
		<stop  offset="0.0283" style="stop-color:#5D91C9"/>
		<stop  offset="0.1045" style="stop-color:#4E85C1"/>
		<stop  offset="0.2013" style="stop-color:#417BBA"/>
		<stop  offset="0.2944" style="stop-color:#3D78B8"/>
		<stop  offset="0.7025" style="stop-color:#3B73B0"/>
		<stop  offset="1" style="stop-color:#386DA7"/>
	</linearGradient>
	<path style="fill:url(#SVGID_00000103968059513091117930000010755810788831893942_);" d="M179.356,209.484
		c-0.059-0.068-0.168-0.182-0.315-0.341c-19.472-20.825-22.44-41.971-7.939-56.56c19.501-19.611,42.581-7.538,52.06,1.588
		l-4.534,4.72c-0.934-0.893-23.078-21.615-42.882-1.691c-16.886,16.988,0.025,38.859,8.078,47.473
		c0.601,0.64,0.928,0.991,1.164,1.698l-6.211,2.067C178.966,209.015,179.268,209.385,179.356,209.484z"/>
	
		<linearGradient id="SVGID_00000165918391951830675530000008005017977691292824_" gradientUnits="userSpaceOnUse" x1="172.7119" y1="150.4079" x2="208.7227" y2="190.0569">
		<stop  offset="0.0283" style="stop-color:#5D91C9"/>
		<stop  offset="0.1414" style="stop-color:#4E85C1"/>
		<stop  offset="0.2849" style="stop-color:#417BBA"/>
		<stop  offset="0.4231" style="stop-color:#3D78B8"/>
		<stop  offset="0.7568" style="stop-color:#3B73B0"/>
		<stop  offset="1" style="stop-color:#386DA7"/>
	</linearGradient>
	<path style="opacity:0.5;fill:url(#SVGID_00000165918391951830675530000008005017977691292824_);" d="M207.8,148.569
		c-5.049-1.967-10.307-2.872-15.743-2.612c-7.438,0.355-14.905,3.607-19.981,9.11c-4.622,5.008-7.308,11.491-7.277,18.331
		c0.021,6.047,3.538,11.446,3.645,17.449c0.021,1.148-0.13,2.344-0.479,3.456c2.752,4.903,6.44,9.88,11.077,14.84
		c0.148,0.159,0.257,0.272,0.315,0.341c-0.088-0.1-0.391-0.47-0.58-1.046l6.211-2.067c-0.236-0.707-0.564-1.059-1.164-1.698
		c-8.053-8.613-24.964-30.484-8.078-47.473c19.804-19.924,41.947,0.799,42.882,1.691l4.534-4.72
		c-0.228-0.222-0.471-0.442-0.711-0.665c-4.77,1.183-9.784-2.945-13.909-4.641C208.296,148.764,208.048,148.666,207.8,148.569z"/>
	
		<linearGradient id="SVGID_00000119103488895860122870000002847197610839115440_" gradientUnits="userSpaceOnUse" x1="202.0802" y1="171.0724" x2="249.5508" y2="209.0849">
		<stop  offset="0.0283" style="stop-color:#5D91C9"/>
		<stop  offset="0.1414" style="stop-color:#4E85C1"/>
		<stop  offset="0.2849" style="stop-color:#417BBA"/>
		<stop  offset="0.4231" style="stop-color:#3D78B8"/>
		<stop  offset="0.7568" style="stop-color:#3B73B0"/>
		<stop  offset="1" style="stop-color:#386DA7"/>
	</linearGradient>
	<path style="fill:url(#SVGID_00000119103488895860122870000002847197610839115440_);" d="M271.815,161.211
		c-1.589-1.193-19.347,8.94-24.664,11.998c-10.767-10.869-22.593-22.13-23.803-21.727c-3.273,1.092-52.015,54.015-51.651,57.471
		c0.361,3.457,41.465,37.464,43.103,37.464c1.638,0,50.38-51.832,50.38-53.649C268.632,188.314,273.635,162.576,271.815,161.211z"/>
	
		<linearGradient id="SVGID_00000066508016063895727600000000021586315073844409_" gradientUnits="userSpaceOnUse" x1="225.9295" y1="146.6734" x2="270.8566" y2="182.6492">
		<stop  offset="0.0283" style="stop-color:#5D91C9"/>
		<stop  offset="0.1414" style="stop-color:#4E85C1"/>
		<stop  offset="0.2849" style="stop-color:#417BBA"/>
		<stop  offset="0.4231" style="stop-color:#3D78B8"/>
		<stop  offset="0.7568" style="stop-color:#3B73B0"/>
		<stop  offset="1" style="stop-color:#386DA7"/>
	</linearGradient>
	<path style="opacity:0.5;fill:url(#SVGID_00000066508016063895727600000000021586315073844409_);" d="M268.998,172.136
		c-5.151,4.419-12.618,6.473-18.963,3.406c-1.561-0.755-2.771-2.295-2.813-2.338c-0.02,0.012,12.394,11.846,18.255,19.11
		c2.228-3.551,4.978-15.023,6.151-23.02C270.849,170.348,269.965,171.307,268.998,172.136z"/>
	
		<linearGradient id="SVGID_00000097461491050634126350000014786216991698908327_" gradientUnits="userSpaceOnUse" x1="199.5537" y1="179.5344" x2="235.7461" y2="220.8184">
		<stop  offset="0.0283" style="stop-color:#5D91C9"/>
		<stop  offset="0.1414" style="stop-color:#4E85C1"/>
		<stop  offset="0.2849" style="stop-color:#417BBA"/>
		<stop  offset="0.4231" style="stop-color:#3D78B8"/>
		<stop  offset="0.7568" style="stop-color:#3B73B0"/>
		<stop  offset="1" style="stop-color:#386DA7"/>
	</linearGradient>
	<path style="opacity:0.4;fill:url(#SVGID_00000097461491050634126350000014786216991698908327_);" d="M235.167,219.594
		c-6.973,3.663-14.98,5.595-22.869,4.935c-9.558-0.802-18.296-5.41-23.568-13.578c-3.282-5.086-5.805-11.464-5.011-17.636
		c-7.039,8.128-12.14,14.513-12.021,15.639c0.361,3.457,41.465,37.464,43.103,37.464c1.638,0,50.38-51.832,50.38-53.649
		C265.748,192.031,246.733,213.52,235.167,219.594z"/>
	
		<linearGradient id="SVGID_00000136385075091462448620000010515990476978372285_" gradientUnits="userSpaceOnUse" x1="213.8474" y1="167.4952" x2="244.2263" y2="202.1479">
		<stop  offset="0.0283" style="stop-color:#5D91C9"/>
		<stop  offset="0.1414" style="stop-color:#4E85C1"/>
		<stop  offset="0.2849" style="stop-color:#417BBA"/>
		<stop  offset="0.4231" style="stop-color:#3D78B8"/>
		<stop  offset="0.7568" style="stop-color:#3B73B0"/>
		<stop  offset="1" style="stop-color:#386DA7"/>
	</linearGradient>
	<path style="fill:url(#SVGID_00000136385075091462448620000010515990476978372285_);" d="M198.796,179.853
		c0,0,24.416-26.871,25.099-26.598c0.683,0.273,22.368,21.689,22.368,21.689s-16.095-11.459-21.822-12.14
		C218.711,162.122,198.796,179.853,198.796,179.853z"/>
</g>
<g>
	<g>
		
			<linearGradient id="SVGID_00000145020987573825359220000012089951934669317031_" gradientUnits="userSpaceOnUse" x1="288.2576" y1="211.079" x2="295.3052" y2="211.079">
			<stop  offset="0.0042" style="stop-color:#9CFFFF"/>
			<stop  offset="0.8934" style="stop-color:#23A3FF"/>
		</linearGradient>
		<path style="fill:url(#SVGID_00000145020987573825359220000012089951934669317031_);" d="M294.484,212.057
			c-0.041,0-0.086-0.002-0.131-0.012c-3.263-0.531-6.121-1.055-6.096-1.505c0.022-0.45,2.998-0.659,6.36-0.108
			c0.443,0.071,0.748,0.49,0.677,0.94C295.228,211.773,294.88,212.057,294.484,212.057z"/>
		
			<linearGradient id="SVGID_00000022531595592969322200000014582443122385892532_" gradientUnits="userSpaceOnUse" x1="304.5989" y1="222.6992" x2="334.8719" y2="222.6992">
			<stop  offset="0.0042" style="stop-color:#9CFFFF"/>
			<stop  offset="0.8934" style="stop-color:#23A3FF"/>
		</linearGradient>
		<path style="fill:url(#SVGID_00000022531595592969322200000014582443122385892532_);" d="M334.053,231.83
			c-0.215,0-0.434-0.086-0.594-0.255c-2.483-2.642-8.82-8.041-8.559-8.409c0.262-0.368,7.193,4.569,9.751,7.286
			c0.307,0.328,0.293,0.847-0.037,1.156C334.456,231.758,334.256,231.83,334.053,231.83z M315.864,218.768
			c-0.119,0-0.238-0.027-0.352-0.079c-3.259-1.567-11.047-4.637-10.912-5.069c0.136-0.433,8.286,1.996,11.618,3.593
			c0.407,0.196,0.58,0.683,0.386,1.092C316.462,218.596,316.169,218.768,315.864,218.768z"/>
		
			<linearGradient id="SVGID_00000134941805569814331160000010435025778913908864_" gradientUnits="userSpaceOnUse" x1="340.4339" y1="242.3962" x2="344.3054" y2="242.3962">
			<stop  offset="0.0042" style="stop-color:#9CFFFF"/>
			<stop  offset="0.8934" style="stop-color:#23A3FF"/>
		</linearGradient>
		<path style="fill:url(#SVGID_00000134941805569814331160000010435025778913908864_);" d="M343.485,245.567
			c-0.307,0-0.6-0.174-0.738-0.472c-0.769-1.624-2.646-5.624-2.262-5.86c0.385-0.232,2.95,3.488,3.74,5.162
			c0.195,0.409,0.02,0.896-0.392,1.09C343.722,245.54,343.603,245.567,343.485,245.567z"/>
	</g>
	<g>
		
			<linearGradient id="SVGID_00000010291708325852034740000015527671658334074511_" gradientUnits="userSpaceOnUse" x1="287.504" y1="216.8216" x2="294.3953" y2="216.8216">
			<stop  offset="0.0042" style="stop-color:#9CFFFF"/>
			<stop  offset="0.8934" style="stop-color:#23A3FF"/>
		</linearGradient>
		<path style="fill:url(#SVGID_00000010291708325852034740000015527671658334074511_);" d="M293.575,218.122
			c-0.089,0-0.177-0.017-0.266-0.05c-3.174-1.105-5.861-1.834-5.805-2.278c0.055-0.447,2.988-0.437,6.342,0.736
			c0.427,0.15,0.651,0.613,0.503,1.042C294.229,217.909,293.916,218.122,293.575,218.122z"/>
		
			<linearGradient id="SVGID_00000132048758083295052520000010541044659202268066_" gradientUnits="userSpaceOnUse" x1="303.6798" y1="235.0371" x2="331.1332" y2="235.0371">
			<stop  offset="0.0042" style="stop-color:#9CFFFF"/>
			<stop  offset="0.8934" style="stop-color:#23A3FF"/>
		</linearGradient>
		<path style="fill:url(#SVGID_00000132048758083295052520000010541044659202268066_);" d="M330.314,248.025
			c-0.25,0-0.498-0.118-0.658-0.335c-2.413-3.295-7.813-10.093-7.48-10.397c0.335-0.305,6.352,6.086,8.801,9.43
			c0.267,0.363,0.187,0.877-0.177,1.145C330.652,247.973,330.485,248.025,330.314,248.025z M314.103,230.362
			c-0.188,0-0.374-0.064-0.529-0.192c-3.121-2.651-10.121-7.714-9.888-8.098c0.237-0.389,7.76,4.146,10.946,6.848
			c0.344,0.291,0.387,0.81,0.096,1.155C314.565,230.267,314.334,230.362,314.103,230.362z"/>
		
			<linearGradient id="SVGID_00000177459121708947236200000002874126328516515727_" gradientUnits="userSpaceOnUse" x1="336.4875" y1="259.6464" x2="340.5074" y2="259.6464">
			<stop  offset="0.0042" style="stop-color:#9CFFFF"/>
			<stop  offset="0.8934" style="stop-color:#23A3FF"/>
		</linearGradient>
		<path style="fill:url(#SVGID_00000177459121708947236200000002874126328516515727_);" d="M339.69,262.775
			c-0.287,0-0.568-0.153-0.719-0.421c-0.892-1.61-2.82-5.595-2.434-5.826c0.387-0.236,2.965,3.407,3.867,5.032
			c0.218,0.398,0.076,0.893-0.318,1.112C339.958,262.744,339.825,262.775,339.69,262.775z"/>
	</g>
	<g>
		
			<linearGradient id="SVGID_00000004534711471095538360000001807921941537126307_" gradientUnits="userSpaceOnUse" x1="288.0114" y1="225.4355" x2="294.7289" y2="225.4355">
			<stop  offset="0.0042" style="stop-color:#9CFFFF"/>
			<stop  offset="0.8934" style="stop-color:#23A3FF"/>
		</linearGradient>
		<path style="fill:url(#SVGID_00000004534711471095538360000001807921941537126307_);" d="M293.91,226.979
			c-0.125,0-0.25-0.028-0.369-0.087c-3.057-1.556-5.596-2.314-5.528-2.761c0.065-0.446,2.938-0.396,6.271,1.301
			c0.401,0.205,0.561,0.695,0.356,1.1C294.493,226.814,294.208,226.979,293.91,226.979z"/>
		
			<linearGradient id="SVGID_00000173857116241964378660000018199258124634352770_" gradientUnits="userSpaceOnUse" x1="302.4617" y1="245.3472" x2="325.2803" y2="245.3472">
			<stop  offset="0.0042" style="stop-color:#9CFFFF"/>
			<stop  offset="0.8934" style="stop-color:#23A3FF"/>
		</linearGradient>
		<path style="fill:url(#SVGID_00000173857116241964378660000018199258124634352770_);" d="M324.463,258.813
			c-0.271,0-0.533-0.132-0.691-0.376c-2.07-3.226-6.497-9.996-6.136-10.264c0.367-0.272,5.422,6.122,7.515,9.379
			c0.245,0.382,0.133,0.887-0.247,1.132C324.768,258.771,324.613,258.813,324.463,258.813z M311.068,241.023
			c-0.219,0-0.443-0.092-0.605-0.269c-2.632-2.911-8.282-8.51-7.99-8.856c0.29-0.345,6.525,4.794,9.204,7.758
			c0.304,0.334,0.278,0.853-0.059,1.157C311.462,240.955,311.265,241.023,311.068,241.023z"/>
		
			<linearGradient id="SVGID_00000167382821032898188230000000858499176608115120_" gradientUnits="userSpaceOnUse" x1="329.7608" y1="269.9911" x2="333.6748" y2="269.9911">
			<stop  offset="0.0042" style="stop-color:#9CFFFF"/>
			<stop  offset="0.8934" style="stop-color:#23A3FF"/>
		</linearGradient>
		<path style="fill:url(#SVGID_00000167382821032898188230000000858499176608115120_);" d="M332.859,273.152
			c-0.294,0-0.578-0.158-0.724-0.432c-0.882-1.643-2.714-5.658-2.32-5.881c0.396-0.229,2.874,3.452,3.763,5.107
			c0.213,0.397,0.063,0.897-0.336,1.108C333.117,273.12,332.989,273.152,332.859,273.152z"/>
	</g>
	<g>
		
			<linearGradient id="SVGID_00000105384617257200358180000004610357538460855948_" gradientUnits="userSpaceOnUse" x1="287.0194" y1="233.8802" x2="293.3871" y2="233.8802">
			<stop  offset="0.0042" style="stop-color:#9CFFFF"/>
			<stop  offset="0.8934" style="stop-color:#23A3FF"/>
		</linearGradient>
		<path style="fill:url(#SVGID_00000105384617257200358180000004610357538460855948_);" d="M292.564,235.793
			c-0.16,0-0.326-0.049-0.468-0.148c-2.761-1.954-5.203-3.104-5.072-3.536c0.135-0.43,3.012,0.072,6.014,2.199
			c0.373,0.262,0.46,0.77,0.198,1.14C293.074,235.674,292.824,235.793,292.564,235.793z"/>
		
			<linearGradient id="SVGID_00000100379025637883423780000010480736175431530907_" gradientUnits="userSpaceOnUse" x1="300.0522" y1="247.0169" x2="307.8921" y2="247.0169">
			<stop  offset="0.0042" style="stop-color:#9CFFFF"/>
			<stop  offset="0.8934" style="stop-color:#23A3FF"/>
		</linearGradient>
		<path style="fill:url(#SVGID_00000100379025637883423780000010480736175431530907_);" d="M307.074,252.193
			c-0.273,0-0.538-0.136-0.696-0.386c-2.035-3.267-6.65-9.661-6.308-9.957c0.344-0.291,5.617,5.754,7.697,9.092
			c0.239,0.386,0.124,0.887-0.262,1.129C307.373,252.153,307.225,252.193,307.074,252.193z"/>
		
			<linearGradient id="SVGID_00000078022759038328122560000006268439073999950466_" gradientUnits="userSpaceOnUse" x1="311.9467" y1="263.5614" x2="315.4513" y2="263.5614">
			<stop  offset="0.0042" style="stop-color:#9CFFFF"/>
			<stop  offset="0.8934" style="stop-color:#23A3FF"/>
		</linearGradient>
		<path style="fill:url(#SVGID_00000078022759038328122560000006268439073999950466_);" d="M314.636,266.826
			c-0.318,0-0.619-0.186-0.752-0.497c-0.724-1.678-2.277-5.828-1.87-6.025c0.41-0.196,2.64,3.679,3.37,5.378
			c0.18,0.416-0.012,0.896-0.425,1.076C314.853,266.803,314.744,266.826,314.636,266.826z"/>
	</g>
	<g>
		
			<linearGradient id="SVGID_00000034809127587741084710000015943758696981529988_" gradientUnits="userSpaceOnUse" x1="286.9772" y1="237.4398" x2="291.5296" y2="237.4398">
			<stop  offset="0.0042" style="stop-color:#9CFFFF"/>
			<stop  offset="0.8934" style="stop-color:#23A3FF"/>
		</linearGradient>
		<path style="fill:url(#SVGID_00000034809127587741084710000015943758696981529988_);" d="M290.712,240.398
			c-0.273,0-0.539-0.137-0.694-0.386c-1.724-2.752-3.336-5.207-2.994-5.504c0.343-0.293,2.588,1.772,4.383,4.636
			c0.238,0.382,0.121,0.887-0.262,1.128C291.01,240.357,290.859,240.398,290.712,240.398z"/>
		
			<linearGradient id="SVGID_00000116197748945415799730000016465631007479143572_" gradientUnits="userSpaceOnUse" x1="294.6164" y1="252.3925" x2="298.5448" y2="252.3925">
			<stop  offset="0.0042" style="stop-color:#9CFFFF"/>
			<stop  offset="0.8934" style="stop-color:#23A3FF"/>
		</linearGradient>
		<path style="fill:url(#SVGID_00000116197748945415799730000016465631007479143572_);" d="M297.726,257.65
			c-0.381,0-0.721-0.267-0.802-0.653c-0.597-2.929-2.671-9.689-2.252-9.859c0.425-0.17,3.238,6.502,3.857,9.529
			c0.09,0.443-0.196,0.875-0.637,0.967C297.835,257.647,297.778,257.65,297.726,257.65z"/>
		
			<linearGradient id="SVGID_00000049909315621365646290000005917754889053737150_" gradientUnits="userSpaceOnUse" x1="297.3645" y1="268.8563" x2="299.1213" y2="268.8563">
			<stop  offset="0.0042" style="stop-color:#9CFFFF"/>
			<stop  offset="0.8934" style="stop-color:#23A3FF"/>
		</linearGradient>
		<path style="fill:url(#SVGID_00000049909315621365646290000005917754889053737150_);" d="M298.186,272.394
			c-0.04,0-0.081-0.005-0.123-0.01c-0.445-0.068-0.755-0.481-0.691-0.931c0.262-1.758,0.801-6.174,1.261-6.134
			c0.45,0.005,0.632,4.544,0.359,6.372C298.935,272.101,298.585,272.394,298.186,272.394z"/>
	</g>
</g>
</svg>